<svg width="89" height="89" viewBox="0 0 89 89" fill="none" xmlns="http://www.w3.org/2000/svg">
<g clip-path="url(#clip0_394_11)">
<path d="M77.875 77.875V89H89V77.875H85.2917V74.1667H81.5833V77.875H77.875ZM85.2917 81.5833V85.2917H81.5833V81.5833H85.2917ZM0 89H29.6667V59.3333H0V89ZM3.70833 63.0417H25.9583V85.2917H3.70833V63.0417ZM77.875 74.1667V70.4583H81.5833V74.1667H77.875ZM7.41667 66.75H22.25V81.5833H7.41667V66.75ZM37.0833 55.625V63.0417H33.375V55.625H37.0833ZM44.5 25.9583H48.2083V29.6667H44.5V25.9583ZM48.2083 22.25H51.9167V25.9583H48.2083V22.25ZM51.9167 29.6667V25.9583H55.625V29.6667H51.9167ZM51.9167 22.25H55.625V0H44.5V3.70833H33.375V7.41667H44.5V11.125H51.9167V22.25ZM48.2083 7.41667V3.70833H51.9167V7.41667H48.2083ZM22.25 22.25H7.41667V7.41667H22.25V22.25ZM44.5 22.25H40.7917V14.8333H33.375V11.125H44.5V14.8333H48.2083V18.5417H44.5V22.25ZM29.6667 0H0V29.6667H29.6667V0ZM25.9583 25.9583H3.70833V3.70833H25.9583V25.9583ZM37.0833 25.9583H33.375V22.25H40.7917V29.6667H37.0833V25.9583ZM25.9583 37.0833V40.7917H22.25V37.0833H25.9583ZM81.5833 59.3333H89V70.4583H85.2917V66.75H77.875V70.4583H74.1667V66.75H70.4583V63.0417H74.1667V59.3333H77.875V63.0417H81.5833V59.3333ZM66.75 66.75H63.0417V70.4583H59.3333V66.75H55.625V63.0417H59.3333V59.3333H51.9167V55.625H48.2083V59.3333H44.5V63.0417H37.0833V66.75H33.375V89H51.9167V85.2917H48.2083V77.875H44.5V85.2917H37.0833V81.5833H40.7917V77.875H37.0833V74.1667H48.2083V70.4583H55.625V77.875H51.9167V81.5833H55.625V89H59.3333V81.5833H63.0417V85.2917H66.75V81.5833H70.4583V74.1667H74.1667V70.4583H66.75V66.75ZM63.0417 77.875H59.3333V74.1667H63.0417V77.875ZM85.2917 55.625V48.2083H89V55.625H85.2917ZM51.9167 74.1667V77.875H48.2083V74.1667H51.9167ZM70.4583 85.2917V81.5833H74.1667V89H66.75V85.2917H70.4583ZM59.3333 0V29.6667H89V0H59.3333ZM85.2917 25.9583H63.0417V3.70833H85.2917V25.9583ZM81.5833 22.25H66.75V7.41667H81.5833V22.25ZM85.2917 37.0833H89V44.5H85.2917V48.2083H77.875V33.375H81.5833V40.7917H85.2917V37.0833ZM70.4583 59.3333V48.2083H74.1667V59.3333H70.4583ZM22.25 33.375V37.0833H14.8333V40.7917H18.5417V44.5H7.41667V40.7917H11.125V37.0833H3.70833V40.7917H0V33.375H22.25ZM18.5417 48.2083V44.5H22.25V55.625H18.5417V51.9167H14.8333V55.625H11.125V51.9167H7.41667V55.625H0V51.9167H3.70833V48.2083H18.5417ZM3.70833 44.5V48.2083H0V44.5H3.70833ZM74.1667 37.0833H70.4583V33.375H74.1667V37.0833ZM25.9583 51.9167H29.6667V55.625H25.9583V51.9167ZM81.5833 59.3333H77.875V55.625H81.5833V59.3333ZM63.0417 63.0417V59.3333H66.75V63.0417H63.0417ZM59.3333 59.3333H63.0417V48.2083H70.4583V44.5H74.1667V40.7917H70.4583V37.0833H63.0417V33.375H59.3333V37.0833H55.625V33.375H51.9167V37.0833H48.2083V33.375H44.5V37.0833H40.7917V40.7917H37.0833V37.0833H40.7917V33.375H25.9583V37.0833H33.375V40.7917H25.9583V44.5H29.6667V51.9167H33.375V48.2083H40.7917V55.625H44.5V40.7917H48.2083V48.2083H59.3333V51.9167H51.9167V55.625H59.3333V59.3333ZM63.0417 40.7917H66.75V44.5H63.0417V40.7917ZM55.625 44.5H51.9167V40.7917H55.625V44.5Z" fill="#FF1C37"/>
</g>
<defs>
<clipPath id="clip0_394_11">
<rect width="89" height="89" fill="white"/>
</clipPath>
</defs>
</svg>
